# xmcd
#
# Track frame offsets: 
#        150
#        13288
#        25395
#        37098
#        49747
#        60627
#        72445
#        84470
#        98075
#        110500
#        124515
#        137555
#        149199
#        163365
#        174879
#        186500
#        198440
#        210600
#        224640
#        238504
#        250333
#        261040
#        271447
#        285447
#        296076
#
# Disc length: 4089 seconds
#
# Revision: 1
# Processed by: cddbd v1.5.2PL0 Copyright (c) Steve Scherf et al.
# Submitted via: ExactAudioCopyFreeDBPlugin 1.0
#
DISCID=900ff719
DTITLE=Wayne Raney - That Real Hot Boogie Boy: The King Anthology
DYEAR=2002
DGENRE=Country
TTITLE0=Fox Chase
TTITLE1=Fast Train Through Arkensas
TTITLE2=Jole Blon's Ghost
TTITLE3=Jack And Jill Boogie
TTITLE4=Don't Know Why
TTITLE5=Lost John Boogie
TTITLE6=Lonesome Wind Blues
TTITLE7=Why Don't You Haul Off And Love Me
TTITLE8=Del Rio Boogie
TTITLE9=Red Ball To Natchez
TTITLE10=I'm Square Dab From The Country (And The Country's Still In M
TTITLE10=e)
TTITLE11=Pardon My Whiskers
TTITLE12=I Feel A Streak Of Love Coming On
TTITLE13=I Ain't Nothin' But A Tom Cat's Kitten
TTITLE14=If You've Got The Money, I've Got The Time
TTITLE15=Real Hot Boogie
TTITLE16=I Had My Fingers Crossed
TTITLE17=You Better Treat Your Man Right
TTITLE18=Blues At My Door
TTITLE19=Catfish Baby
TTITLE20=Undertakin' Daddy
TTITLE21=When They Let The Hammer Down
TTITLE22=The Child's Side Of Life
TTITLE23=Adam Come And Get Your Rib
TTITLE24=Undertakin' Daddy (Undubbed Version)
EXTD=william hale
EXTT0=
EXTT1=
EXTT2=
EXTT3=
EXTT4=
EXTT5=
EXTT6=
EXTT7=
EXTT8=
EXTT9=
EXTT10=
EXTT11=
EXTT12=
EXTT13=
EXTT14=
EXTT15=
EXTT16=
EXTT17=
EXTT18=
EXTT19=
EXTT20=
EXTT21=
EXTT22=
EXTT23=
EXTT24=
PLAYORDER=
